<?xml version="1.0" encoding="UTF-8"?>
<svg id="Layer_2" data-name="Layer 2" xmlns="http://www.w3.org/2000/svg" viewBox="0 0 66 66">
  <defs>
    <style>
      .cls-1 {
        fill: #f5ebe0;
      }
    </style>
  </defs>
  <g id="Layer_1-2" data-name="Layer 1">
    <g id="_вверх" data-name="вверх">
      <path class="cls-1" d="M33,0C14.77,0,0,14.77,0,33s14.77,33,33,33,33-14.77,33-33S51.23,0,33,0Zm0,62c-16.02,0-29-12.98-29-29S16.98,4,33,4s29,12.98,29,29-12.98,29-29,29Z"/>
      <path class="cls-1" d="M17,38c.09-.09,10.1-18.06,16-18s12.94,14.04,15.38,18c.62,1-5.77,.97-7.32,0-2.72-1.7-4.85-9.93-8.06-10s-5.94,8.3-8.8,10c-1.55,.92-8.2,1-7.2,0Z"/>
    </g>
  </g>
</svg>