<?xml version="1.0" encoding="UTF-8"?>
<svg id="Layer_2" data-name="Layer 2" xmlns="http://www.w3.org/2000/svg" viewBox="0 0 1280 653">
  <defs>
    <style>
      .cls-1 {
        fill: #9b919b;
      }

      .cls-2 {
        fill: #afa7af;
      }

      .cls-3 {
        fill: #877b87;
      }
    </style>
  </defs>
  <g id="Layer_1-2" data-name="Layer 1">
    <path class="cls-2" d="M528.65,493.7c18.77-8.01,48.6-23.58,76.54-52.63,15.3-15.91,16.17-26.86,41.4-59.97,19.49-25.58,21.02-23.29,37.01-44.67,30.28-40.49,40.35-69.47,48.31-67.32,6.18,1.67,.43,19.24,11.92,42.23,4.23,8.45,8.1,12.26,28.23,32.43,42.13,42.21,43.98,44.36,47.05,48.96,14.75,22.1,10.06,29.49,23.21,49.57,14.23,21.72,33.67,34.37,47.68,41.61v25.09h-361.35v-15.3Z"/>
    <path class="cls-1" d="M152,434.6c17.89-17.03,43.76-44.43,68.48-83.05,21.01-32.83,18.01-37.56,35.7-59.74,36.94-46.31,62.13-40.86,83.05-80.14,15.42-28.96,11.43-50.13,26.96-55.37,14.31-4.83,33.64,7.8,44.44,21.13,23.18,28.61,3.64,56.22,26.96,84.51,12.9,15.64,20.28,8.9,38.61,26.96,22.65,22.3,16.31,37.43,35.7,69.94,7.81,13.09,11.28,14.73,64.11,67.02,29.24,28.95,44.15,44.25,47.35,47.35,58.1,56.31,334.56,43.97,427.64,38.61v104.18H152v-181.4Z"/>
    <path class="cls-3" d="M0,125c10-12,41.29-65.94,52-56,42.85,39.79,59.36,92.3,69,104,3.95,4.8,12.81,49.38,26.47,58.48,13.62,9.07,21.99,8.96,33.09,19.21,9.21,8.5,13.17,17.54,16.07,23.25,5.09,10.01,12.26,20.32,53.88,58.63,64.01,58.9,70.83,56.41,90.75,81.88,12.65,16.17,26.73,38.7,37.81,69.75,28.64,0,60.28-8.19,88.92-8.19,58.33,0,113.67,1,172,1,36.39,0,72.61,10.89,109,13,15.3,.89,30.75-5.81,46.05-5.81,8.64-43.17,24.61-68.58,37.8-83.9,10.62-12.33,23.99-23.38,34.98-46.5,8.89-18.71,11.12-34.59,12.29-41.44,7.07-41.47,27.56-59.3,70.9-137.47,44-79.36,38.14-88.5,65.23-118.27,27.27-29.96,57.03-46.89,78.46-56.61,4.28,4.12,10.66,10.84,17.02,20.22,23.37,34.46,17.06,61.6,37.81,91.99,11.42,16.72,15.04,11.02,29.31,28.3,32.92,39.89,21.82,80.2,41.6,130.4,8.22,20.86,24.34,49.96,59.56,78.85v303.25H0V125Z"/>
  </g>
</svg>